<?xml version="1.0" standalone="no"?>
<!DOCTYPE svg PUBLIC "-//W3C//DTD SVG 20010904//EN"
 "http://www.w3.org/TR/2001/REC-SVG-20010904/DTD/svg10.dtd">
<svg version="1.0" xmlns="http://www.w3.org/2000/svg"
 width="84.000000pt" height="90.000000pt" viewBox="0 0 84.000000 90.000000"
 preserveAspectRatio="xMidYMid meet">

<g transform="translate(0.000000,90.000000) scale(0.100000,-0.100000)"
fill="#000000" stroke="none">
<path d="M393 732 c-27 -4 -29 -15 -7 -36 14 -15 14 -17 -3 -23 -10 -3 -33
-12 -52 -19 -42 -18 -41 -18 -41 5 0 33 -19 34 -51 2 -32 -32 -31 -51 2 -51
21 0 24 -12 9 -38 -5 -9 -15 -30 -21 -47 -9 -26 -12 -28 -20 -12 -19 34 -39
20 -39 -28 0 -33 4 -45 14 -45 8 0 18 5 21 10 10 16 25 12 25 -7 0 -10 9 -33
20 -50 18 -31 18 -38 -4 -34 -4 1 -15 -4 -22 -10 -13 -10 -11 -16 12 -41 34
-35 54 -36 54 -3 0 30 -3 30 45 5 22 -11 45 -20 52 -20 18 0 16 -10 -4 -25
-24 -18 -7 -35 37 -35 45 0 61 17 35 36 -22 16 -24 14 43 41 l52 21 0 -24 c0
-32 20 -30 54 4 23 25 25 31 12 41 -8 7 -20 10 -26 6 -14 -9 -13 8 5 41 8 16
15 37 15 47 0 21 13 22 30 2 19 -23 30 -8 30 41 0 47 -20 61 -39 27 -9 -17
-10 -17 -16 2 -4 11 -13 35 -21 53 -18 42 -18 42 5 42 33 0 33 18 1 50 -33 32
-50 32 -50 -1 0 -22 -6 -23 -40 -4 -14 8 -35 14 -47 15 -27 0 -29 7 -6 32 9
10 14 21 10 24 -7 7 -46 11 -74 6z m49 -99 c32 -29 16 -73 -27 -73 -58 0 -59
88 -1 90 5 0 18 -7 28 -17z m-108 -69 c21 -8 21 -48 0 -65 -31 -26 -70 25 -44
56 14 17 21 18 44 9z m50 -120 c8 -21 -11 -44 -35 -44 -19 0 -35 33 -24 50 10
16 52 12 59 -6z"/>
</g>
</svg>
