<?xml version="1.0" standalone="no"?>
<!DOCTYPE svg PUBLIC "-//W3C//DTD SVG 20010904//EN"
 "http://www.w3.org/TR/2001/REC-SVG-20010904/DTD/svg10.dtd">
<svg version="1.0" xmlns="http://www.w3.org/2000/svg"
 width="26.000000pt" height="28.000000pt" viewBox="0 0 26.000000 28.000000"
 preserveAspectRatio="xMidYMid meet">

<g transform="translate(0.000000,28.000000) scale(0.100000,-0.100000)"
fill="#000000" stroke="none">
<path d="M116 214 c-4 -10 -13 -13 -27 -9 -18 6 -20 4 -15 -13 5 -14 1 -24
-11 -31 -17 -11 -17 -11 0 -22 12 -7 16 -17 11 -31 -5 -17 -3 -19 14 -14 14 5
24 1 31 -11 11 -17 11 -17 22 0 7 12 17 16 31 11 17 -5 19 -3 14 14 -5 14 -1
24 11 31 17 11 17 11 0 22 -12 7 -16 17 -11 31 5 17 3 19 -15 13 -14 -4 -23
-1 -27 9 -8 20 -20 20 -28 0z m21 -29 c0 -8 -4 -15 -8 -15 -11 0 -20 16 -12
24 11 11 20 7 20 -9z m-33 -26 c-3 -5 -10 -7 -15 -3 -5 3 -7 10 -3 15 3 5 10
7 15 3 5 -3 7 -10 3 -15z m16 -23 c0 -3 -4 -8 -10 -11 -5 -3 -10 -1 -10 4 0 6
5 11 10 11 6 0 10 -2 10 -4z"/>
</g>
</svg>
